#!OML:ASF F:\VICON\USERDATA\INSTALL\rory3\rory3.ASF
:FULLY-SPECIFIED
:DEGREES
1641
root -2.94951 17.8852 -6.74943 2.66248 -54.2977 0.0393558
lowerback 5.58893 0.422844 -0.893951
upperback 2.90676 0.482339 4.29288
thorax -0.182014 0.175018 4.91471
lowerneck -23.4808 0.0976185 -8.30644
upperneck 11.5621 0.919153 10.4436
head 7.27102 1.08704 4.97058
rclavicle 4.41302e-014 -3.49861e-014
rhumerus -25.2023 -7.42664 -71.8136
rradius 48.0292
rwrist 16.6116
rhand -22.6538 0.545045
rfingers 7.12502
rthumb 3.77739 -29.4012
lclavicle 4.41302e-014 -3.49861e-014
lhumerus -31.2402 18.9927 85.1524
lradius 35.0159
lwrist 4.42988
lhand -24.8817 30.6225
lfingers 7.12502
lthumb 1.6258 60.5961
rfemur -8.0473 2.32757 19.7794
rtibia 27.4825
rfoot -17.6627 0.944183
rtoes 5.86087
lfemur -20.3635 0.576326 -9.42758
ltibia 42.3791
lfoot -5.82681 4.69728
ltoes -12.1801
1642
root -2.97809 17.8727 -6.756 2.74521 -54.3574 0.0377308
lowerback 5.5572 0.437089 -0.702069
upperback 2.92961 0.508117 4.30935
thorax -0.141906 0.188345 4.82117
lowerneck -23.7091 0.261928 -8.20301
upperneck 11.5707 1.20985 9.95737
head 7.28172 1.18858 4.8264
rclavicle 5.14852e-014 1.59028e-014
rhumerus -25.8823 -6.7945 -73.155
rradius 46.8198
rwrist 17.3598
rhand -21.9914 0.304629
rfingers 7.12502
rthumb 4.41703 -29.6293
lclavicle 5.14852e-014 1.59028e-014
lhumerus -31.2881 18.1705 86.3495
lradius 35.1505
lwrist 4.32304
lhand -24.1479 30.5228
lfingers 7.12502
lthumb 2.3345 60.4898
rfemur -8.13646 2.22067 19.839
rtibia 27.6012
rfoot -17.6625 1.19343
rtoes 6.22081
lfemur -20.6254 0.930304 -9.64139
ltibia 42.0344
lfoot -5.91227 4.96007
ltoes -12.2072
1643
root -3.00763 17.8673 -6.75775 2.73688 -54.3803 0.123684
lowerback 5.50018 0.472791 -0.502616
upperback 2.95226 0.562536 4.30722
thorax -0.0900378 0.216406 4.70237
lowerneck -23.8111 0.39269 -8.09846
upperneck 11.467 1.46417 9.39898
head 7.24079 1.26264 4.64746
rclavicle 1.49089e-014 -1.90833e-014
rhumerus -26.4831 -6.22521 -74.3988
rradius 45.4433
rwrist 18.4226
rhand -20.9856 0.466274
rfingers 7.12502
rthumb 5.38825 -29.4452
lclavicle 1.49089e-014 -1.90833e-014
lhumerus -31.2774 17.0964 87.5617
lradius 35.2793
lwrist 3.879
lhand -23.5212 29.9029
lfingers 7.12502
lthumb 2.93974 59.8624
rfemur -8.16872 1.96627 19.8216
rtibia 27.6599
rfoot -17.5775 1.51259
rtoes 6.65713
lfemur -20.8789 1.06518 -9.91591
ltibia 41.6427
lfoot -6.00613 5.27644
ltoes -12.0204
1644
root -3.04122 17.8759 -6.76409 2.63479 -54.4358 0.288121
lowerback 5.48753 0.526025 -0.444161
upperback 2.97823 0.634224 4.33723
thorax -0.0620444 0.251656 4.69664
lowerneck -23.8535 0.527311 -8.03275
upperneck 11.3207 1.73186 8.84336
head 7.17671 1.3405 4.47555
rclavicle -1.55052e-014 -1.74931e-014
rhumerus -27.0223 -5.49869 -75.6031
rradius 44.0334
rwrist 19.6329
rhand -19.6152 0.648876
rfingers 7.12502
rthumb 6.71132 -29.2248
lclavicle -1.55052e-014 -1.74931e-014
lhumerus -31.2007 16.3086 88.563
lradius 35.3749
lwrist 3.43612
lhand -23.1911 28.5848
lfingers 7.12502
lthumb 3.2585 58.5397
rfemur -8.1421 1.89831 19.7914
rtibia 27.6887
rfoot -17.5998 1.65051
rtoes 6.93811
lfemur -21.1371 1.16556 -10.2368
ltibia 41.1774
lfoot -6.0334 5.63778
ltoes -11.3034
1645
root -3.0716 17.8871 -6.77495 2.5384 -54.4434 0.454438
lowerback 5.54076 0.571176 -0.387668
upperback 2.98671 0.69722 4.3501
thorax -0.0878188 0.283682 4.67413
lowerneck -24.0199 0.675144 -8.01119
upperneck 11.3519 2.00101 8.46237
head 7.1912 1.43548 4.37858
rclavicle 2.00773e-014 -2.06736e-014
rhumerus -27.4761 -4.76393 -76.8126
rradius 42.5669
rwrist 20.566
rhand -17.6336 2.1726
rfingers 7.12502
rthumb 8.6239 -27.6313
lclavicle 2.00773e-014 -2.06736e-014
lhumerus -31.1119 15.694 89.3129
lradius 35.547
lwrist 2.59729
lhand -22.6577 26.9511
lfingers 7.12502
lthumb 3.77364 56.8974
rfemur -8.09859 1.83651 19.787
rtibia 27.6607
rfoot -17.6527 1.6802
rtoes 7.12421
lfemur -21.4372 1.4051 -10.5597
ltibia 40.5994
lfoot -6.02827 6.04418
ltoes -10.9697
1646
root -3.09583 17.8857 -6.7814 2.47908 -54.4135 0.501161
lowerback 5.6984 0.619282 -0.193065
upperback 2.97358 0.773349 4.37065
thorax -0.193396 0.324516 4.57942
lowerneck -24.2049 0.811549 -7.93913
upperneck 11.474 2.25015 8.00556
head 7.24309 1.51469 4.24837
rclavicle 2.42517e-014 -3.18055e-015
rhumerus -27.9078 -4.16942 -77.9128
rradius 41.0285
rwrist 21.7263
rhand -15.4833 4.16495
rfingers 7.12502
rthumb 10.6986 -25.5426
lclavicle 2.42517e-014 -3.18055e-015
lhumerus -31.0754 14.911 90.0336
lradius 35.6936
lwrist 0.23255
lhand -22.4472 25.3287
lfingers 7.12502
lthumb 3.97695 55.2713
rfemur -7.98264 1.66273 19.8327
rtibia 27.581
rfoot -17.5745 1.80361
rtoes 7.667
lfemur -21.5619 1.41975 -10.7544
ltibia 39.921
lfoot -6.13588 6.7548
ltoes -9.78359
1647
root -3.12395 17.8844 -6.78303 2.44685 -54.4415 0.59463
lowerback 5.66333 0.661482 -0.0227418
upperback 2.99515 0.835389 4.37194
thorax -0.154436 0.356314 4.48054
lowerneck -24.3824 0.949397 -7.87608
upperneck 11.5033 2.51535 7.50061
head 7.2638 1.59581 4.10273
rclavicle 2.74323e-014 -1.11319e-014
rhumerus -28.1423 -3.64241 -79.0149
rradius 39.3862
rwrist 23.3192
rhand -14.0598 5.30114
rfingers 7.12502
rthumb 12.0714 -24.3307
lclavicle 2.74323e-014 -1.11319e-014
lhumerus -30.9465 14.1277 90.6926
lradius 35.6617
lwrist -3.61668
lhand -23.2588 24.3019
lfingers 7.12502
lthumb 3.19319 54.2578
rfemur -7.92686 1.58917 19.8301
rtibia 27.537
rfoot -17.591 1.9762
rtoes 8.25523
lfemur -21.6558 1.29975 -10.9644
ltibia 39.1731
lfoot -6.30031 7.65469
ltoes -6.47639
